<svg id="Layer_2" data-name="Layer 2" xmlns="http://www.w3.org/2000/svg" viewBox="0 0 253.07 241.75"><defs><style>.cls-1{fill:#7995c6;}.cls-2{fill:#b2e1e9;}.cls-3{fill:#73c5d8;}.cls-11,.cls-4,.cls-5{fill:#3f3e60;}.cls-5{font-size:40.25px;font-family:Serico-Regular, Serico;letter-spacing:0em;}.cls-6{letter-spacing:-0.05em;}.cls-7{letter-spacing:-0.02em;}.cls-8{letter-spacing:0.08em;}.cls-9{letter-spacing:0.06em;}.cls-10{letter-spacing:0.03em;}.cls-11{font-size:13.97px;font-family:BrushScriptMT, Brush Script MT;}</style></defs><title>techweek20</title><path class="cls-1" d="M335.86,234a4.58,4.58,0,0,0,0,.53l-8.46-1.05-2.95-.37-2.93-.36-3.28-.41a30.91,30.91,0,0,1,.4-24.13,29.43,29.43,0,0,1,2.81-4.89l.81,1.32,3,4.93c-.21.41-.41.82-.6,1.24a27.32,27.32,0,0,0-2.16,14.86,31.71,31.71,0,0,1,5.68-11.36l9.41,15.32A6.21,6.21,0,0,0,335.86,234Z" transform="translate(-190.53 -160.13)"/><path class="cls-1" d="M330.29,211.94a37.87,37.87,0,0,1,16-10l-3.09,26a6.1,6.1,0,0,0-1.13-.11,6.18,6.18,0,0,0-1.89.29Z" transform="translate(-190.53 -160.13)"/><path class="cls-1" d="M347.75,189.82l-.54,4.55c-8.35,1.51-15.63,5.77-20.14,12.33l-3.41-5.55-.19-.31a10.67,10.67,0,0,1,.73-.79A34.26,34.26,0,0,1,347.75,189.82Z" transform="translate(-190.53 -160.13)"/><path class="cls-1" d="M350.28,194l.49-4.15a41,41,0,0,1,9.34,1.42l1.4,3.24A40.66,40.66,0,0,0,350.28,194Z" transform="translate(-190.53 -160.13)"/><path class="cls-1" d="M363.25,213.25a5.62,5.62,0,0,0,1.51,3.85l-16.64,15.32a6.29,6.29,0,0,0-2-3.19L349.44,201a41.8,41.8,0,0,1,9.58-1.1,41,41,0,0,1,5,.3l3.27,7.56A5.7,5.7,0,0,0,363.25,213.25Z" transform="translate(-190.53 -160.13)"/><path class="cls-2" d="M333.47,266a5.57,5.57,0,0,0-1.54,1l-4.59-1.13-33.92-8.38a7.46,7.46,0,0,0-2.49-5l2.28-4.1a101.31,101.31,0,0,0,33.87,10.12l3.95,4.58Z" transform="translate(-190.53 -160.13)"/><path class="cls-2" d="M290.54,247.08,288.9,250l-.57,1a7.26,7.26,0,0,0-2.39-.4,7.39,7.39,0,0,0-3.77,1l-25.5-23a2,2,0,0,0,.16-.4l9.38.66a102.69,102.69,0,0,0,21.52,16.54C288.66,246.05,289.6,246.57,290.54,247.08Z" transform="translate(-190.53 -160.13)"/><path class="cls-2" d="M297.93,191.59a69.56,69.56,0,0,0-6.71,11.68,67.27,67.27,0,0,0-3.5,9.49,50.81,50.81,0,0,1,3.65-20.07Z" transform="translate(-190.53 -160.13)"/><path class="cls-2" d="M307.67,178.47a27.25,27.25,0,0,0-4.06,6.2c-1,1.09-2,2.24-3,3.43l-7.79,1.31a50.9,50.9,0,0,1,12.27-16.32C306,174.86,306.83,176.71,307.67,178.47Z" transform="translate(-190.53 -160.13)"/><path class="cls-2" d="M330.11,166h0a42.81,42.81,0,0,0-20.19,10.16c-.79-1.66-1.61-3.38-2.41-5,.89-.69,1.81-1.35,2.74-1.95a42.33,42.33,0,0,1,9.4-4.74h0l.05,0,1.2.12a5.14,5.14,0,0,1,.55.06l.36,0,1.59.2,1.55.22,1.58.25,1.56.28c.57.1,1.15.22,1.73.34Z" transform="translate(-190.53 -160.13)"/><path class="cls-2" d="M278.43,258.16a7.18,7.18,0,0,0,.42,2.46l-5.61,3.59a50.43,50.43,0,0,1-9.18-8,4.15,4.15,0,0,0,.26-1.46,4.28,4.28,0,0,0-3.58-4.22A144.31,144.31,0,0,1,255,231.27l24.9,22.41A7.4,7.4,0,0,0,278.43,258.16Z" transform="translate(-190.53 -160.13)"/><path class="cls-2" d="M283.21,265.15l-.18,4.36a52.51,52.51,0,0,1-6.35-3.12L276,266l4.36-2.79A7.34,7.34,0,0,0,283.21,265.15Z" transform="translate(-190.53 -160.13)"/><path class="cls-2" d="M292.6,272.38a51.24,51.24,0,0,1-6.61-1.76l.2-5a7.11,7.11,0,0,0,2.57-.54Z" transform="translate(-190.53 -160.13)"/><path class="cls-2" d="M323.68,268.07A46.87,46.87,0,0,1,296.31,273l-5-9.52a7.36,7.36,0,0,0,1.8-2.92l3.34.82Z" transform="translate(-190.53 -160.13)"/><path class="cls-2" d="M283.39,238.73l-.27-.15a46.91,46.91,0,0,1-11.42-9.23l5.3.37A46.24,46.24,0,0,0,283.39,238.73Z" transform="translate(-190.53 -160.13)"/><path class="cls-2" d="M275.45,226.61l-6.39-.45a45.59,45.59,0,0,1-9.19-25.79l.38,0a4,4,0,0,0,3.91-3.13l9.1-1.53A44.57,44.57,0,0,0,275.45,226.61Z" transform="translate(-190.53 -160.13)"/><path class="cls-2" d="M301,166.8a43.69,43.69,0,0,0-26.68,25.71l-10.69,1.79a3.36,3.36,0,0,0-.35-.49c3.76-6.31,14.24-20.52,35.94-28.06A3.29,3.29,0,0,0,301,166.8Z" transform="translate(-190.53 -160.13)"/><path class="cls-2" d="M319.67,164.42l-.05,0h0a45.91,45.91,0,0,0-14.9,1.26l-.16-.3h0a3.08,3.08,0,0,0,.45-.93A74.29,74.29,0,0,1,319.67,164.42Z" transform="translate(-190.53 -160.13)"/><path class="cls-2" d="M263.14,225.75l-6.09-.43a5.69,5.69,0,0,0-3.76-4.28c.19-1.9.49-4.17,1-6.6A99.83,99.83,0,0,0,263.14,225.75Z" transform="translate(-190.53 -160.13)"/><path class="cls-3" d="M310.59,192.29l-8,29.22a9.82,9.82,0,0,0-1.09-.06,9.68,9.68,0,0,0-9.08,6.34l-1.75-.12-5.4-.38-9.77-.68a44.57,44.57,0,0,1-2.19-30.88l18.11-3a50.81,50.81,0,0,0-3.65,20.07,67.27,67.27,0,0,1,3.5-9.49,69.56,69.56,0,0,1,6.71-11.68l10.45-1.75A5.63,5.63,0,0,0,310.59,192.29Z" transform="translate(-190.53 -160.13)"/><path class="cls-3" d="M309.85,183.16a5.59,5.59,0,0,0-2,3.72l-5.48.92-1.8.3c1-1.19,2-2.34,3-3.43a60.66,60.66,0,0,1,4.82-4.57C308.93,181.19,309.41,182.22,309.85,183.16Z" transform="translate(-190.53 -160.13)"/><path class="cls-3" d="M348.24,171.77,317.94,184a5.57,5.57,0,0,0-4.46-2.21,4.43,4.43,0,0,0-.9.08l-1.74-3.74a52.81,52.81,0,0,1,4.65-3.15c.49-.29,1-.57,1.46-.84,1-.58,2.09-1.11,3.15-1.6a43.43,43.43,0,0,1,6.25-2.33c1.07-.3,2.14-.56,3.21-.76.33-.07.67-.13,1-.17s.92-.15,1.37-.21l1-.11c.48-.05,1-.08,1.46-.11l.79,0c.27,0,.53,0,.8,0h0c.61,0,1.22,0,1.82,0s1,.06,1.48.11c.95.09,1.89.22,2.83.4Q345.12,170.43,348.24,171.77Z" transform="translate(-190.53 -160.13)"/><path class="cls-3" d="M295.26,238.58l-2.37,4.26-1.58,2.85a46.45,46.45,0,0,1-14.31-16l8.13.57,6.65.46c0,.13,0,.26,0,.39A9.64,9.64,0,0,0,295.26,238.58Z" transform="translate(-190.53 -160.13)"/><path class="cls-3" d="M323.06,253.92a46.51,46.51,0,0,1-28.31-6c-.31-.18-.62-.36-.92-.55l4-7.21c.22.09.45.17.68.24a9.52,9.52,0,0,0,2.94.46,9.66,9.66,0,0,0,7.36-3.39l11.84,13.7Z" transform="translate(-190.53 -160.13)"/><path class="cls-3" d="M305.08,173.09a50.9,50.9,0,0,0-12.27,16.32l-18.46,3.1A43.69,43.69,0,0,1,301,166.8a3.55,3.55,0,0,0,.73.08h.18C302.87,168.61,304,170.79,305.08,173.09Z" transform="translate(-190.53 -160.13)"/><path class="cls-3" d="M319.61,164.44a42.33,42.33,0,0,0-9.4,4.74c-.93.6-1.85,1.26-2.74,1.95-.33-.67-.66-1.33-1-2-.62-1.25-1.22-2.42-1.77-3.46A45.91,45.91,0,0,1,319.61,164.44Z" transform="translate(-190.53 -160.13)"/><path class="cls-3" d="M318.67,208.24a30.91,30.91,0,0,0-.4,24.13l-7.14-.89c0-.11,0-.23,0-.34a9.67,9.67,0,0,0-5.71-8.83l8.05-29.22h0a5.64,5.64,0,0,0,1.55-.22l6.44,10.48A29.43,29.43,0,0,0,318.67,208.24Z" transform="translate(-190.53 -160.13)"/><path class="cls-3" d="M356.56,183a36,36,0,0,0-5,0l.24-2,.65-5.41a3.68,3.68,0,0,0,.81-.19Z" transform="translate(-190.53 -160.13)"/><path class="cls-3" d="M349.58,174.47l0,.2-.4,3.42-.63,5.29c-10.45,1.58-20.32,8.24-25,17.46l-5.88-9.55a5.61,5.61,0,0,0,1.52-3.83,4.63,4.63,0,0,0,0-.65l24.83-10.05,2.65-1.07,2.85-1.15Z" transform="translate(-190.53 -160.13)"/><path class="cls-4" d="M388.32,223.4a33.81,33.81,0,0,0-1-5.85,53.2,53.2,0,0,0-2.86-8.29c-.09-.2-.19-.41-.28-.62-.66-1.47-1.43-3-2.33-4.66a87.43,87.43,0,0,0-14.06-18.72q-1.81-1.87-3.85-3.78-3.94-3.72-8.78-7.54a3.76,3.76,0,0,0,.63-2.09,3.49,3.49,0,0,0-.16-1.08,3.74,3.74,0,0,0-3.45-2.68h-.15a3.79,3.79,0,0,0-2.53,1,99.46,99.46,0,0,0-19.17-6.13c-.85-.18-1.69-.34-2.51-.49-1.65-.3-3.24-.54-4.76-.73a77.15,77.15,0,0,0-18.63-.23,3.19,3.19,0,0,0-.57-.59,3.36,3.36,0,0,0-2.12-.75,3.3,3.3,0,0,0-2.69,1.36,3.26,3.26,0,0,0-.61,1.35c-1.15.4-2.26.81-3.35,1.25-20.77,8.15-30.77,21.93-34.48,28.32l-.31,0h-.07a4,4,0,0,0-3.4,6.11,42.58,42.58,0,0,0-4.93,12.37,72,72,0,0,0-1.53,8.94c0,.36-.08.72-.11,1.06a5.69,5.69,0,0,0,1.2,11.25,4.49,4.49,0,0,0,.64,0,141.34,141.34,0,0,0,5.64,19,4.28,4.28,0,1,0,6.3,5.08,4.15,4.15,0,0,0,.26-1.46,4.28,4.28,0,0,0-3.58-4.22A144.31,144.31,0,0,1,255,231.27l24.9,22.41a7.4,7.4,0,0,0-1.49,4.48,7.18,7.18,0,0,0,.42,2.46l-5.61,3.59-19.8,12.68a4.11,4.11,0,1,0,1.7,3.33,4.26,4.26,0,0,0-.08-.8L276,266l4.36-2.79a7.34,7.34,0,0,0,2.83,1.95l-.18,4.36-.79,19.75a4.81,4.81,0,1,0,4.43,8.29l18.87,10.17a5.15,5.15,0,0,0-.09,1,6.05,6.05,0,0,0,.8,3h0l-19.42,13.83a4.35,4.35,0,0,0-2.51-.79,4.42,4.42,0,1,0,4.42,4.42,4.28,4.28,0,0,0-.17-1.19l19.78-14.08a6.12,6.12,0,0,0,8.54-2.16c4.21,1.6,24,9.09,24.32,9.09s5.65,2.06,8.12,1a9.41,9.41,0,0,0,4.43-4.22c.43-.89,10.43-28.95,14.42-31.48l8.52-.17a5.09,5.09,0,0,0,3.64-1.65c1.52-1.7-.82-6.33-.82-6.33a83.51,83.51,0,0,1-3.79-14.48,16.43,16.43,0,0,1,0-5.24,5.38,5.38,0,0,1,.66-1.59A19,19,0,0,1,381,252a11.11,11.11,0,0,0,2.57-3.49,35.58,35.58,0,0,0,2.69-7.89h0s0,0,0,0A87.43,87.43,0,0,0,388.32,223.4Zm-83.77-58a3.08,3.08,0,0,0,.45-.93,74.29,74.29,0,0,1,14.67,0l1.2.12.55.05.36,0,1.59.2,1.55.22,1.58.25,1.56.28c.57.1,1.15.22,1.73.34l.28.07h0q2.93.6,6.05,1.48c1.94.55,3.94,1.18,6,1.91s4,1.5,6.11,2.39l-4.38,1.77-1.69.68L317.94,184a5.57,5.57,0,0,0-4.46-2.21,4.43,4.43,0,0,0-.9.08l-1.74-3.74c-.31-.66-.63-1.34-1-2-.79-1.66-1.61-3.38-2.41-5-.33-.67-.66-1.33-1-2-.62-1.25-1.22-2.42-1.77-3.46l-.16-.3Zm-6.94,1c.54-.21,1.09-.41,1.64-.6A3.29,3.29,0,0,0,301,166.8a3.55,3.55,0,0,0,.73.08h.18c.28.52.57,1.08.88,1.68.71,1.38,1.48,2.93,2.26,4.54.87,1.77,1.75,3.62,2.59,5.38l.76,1.63c.5,1.09,1,2.12,1.42,3.06a5.59,5.59,0,0,0-1.29,1.57,2.12,2.12,0,0,0-.11.21,2,2,0,0,0-.1.21,1.6,1.6,0,0,0-.1.23,4.8,4.8,0,0,0-.24.76,1.31,1.31,0,0,0-.06.27c0,.15-.05.31-.07.47l-5.48.92-1.8.3-7.79,1.31-18.46,3.1-10.69,1.79a3.36,3.36,0,0,0-.35-.49C267,187.66,277,174,297.61,166.35ZM253.29,221c.19-1.9.49-4.17,1-6.6a49.84,49.84,0,0,1,3.07-10.32h0a29.62,29.62,0,0,1,2-3.84,3.71,3.71,0,0,0,.5.09h.07l.38,0a4,4,0,0,0,3.91-3.13l9.1-1.53,18.11-3,6.56-1.1,10.45-1.75a5.63,5.63,0,0,0,2.21,2.45l-8,29.22a9.82,9.82,0,0,0-1.09-.06,9.68,9.68,0,0,0-9.08,6.34l-1.75-.12-5.4-.38-9.77-.68-6.39-.45-5.92-.41-6.09-.43A5.69,5.69,0,0,0,253.29,221Zm55.52,16.39,5.48,6.34h0l.33.39,6,7,2.41,2.79,4,4.65,3.95,4.58,2.44,2.83a5.57,5.57,0,0,0-1.54,1l-4.59-1.13-33.92-8.38a7.46,7.46,0,0,0-2.49-5l2.28-4.1.62-1.12,4-7.21c.22.09.45.17.68.24a9.52,9.52,0,0,0,2.94.46A9.66,9.66,0,0,0,308.81,237.43Zm-26.64,14.24-25.5-23a2,2,0,0,0,.16-.4l3.45.24,5.93.42,5.49.38,5.3.37,8.13.57,6.65.46c0,.13,0,.26,0,.39a9.64,9.64,0,0,0,3.49,7.44l-2.37,4.26-1.58,2.85-.77,1.39L288.9,250l-.57,1a7.26,7.26,0,0,0-2.39-.4A7.39,7.39,0,0,0,282.17,251.67ZM306.73,305l-18.5-10a4.42,4.42,0,0,0,.13-1.1,4.78,4.78,0,0,0-3.12-4.49h0l.75-18.76.2-5a7.11,7.11,0,0,0,2.57-.54l3.84,7.26,16.32,30.79A5.94,5.94,0,0,0,306.73,305Zm8.1-1.46a6,6,0,0,0-2.83-.91L296.31,273l-5-9.52a7.36,7.36,0,0,0,1.8-2.92l3.34.82,27.27,6.73,3.71.92,2.86.71a5.93,5.93,0,0,0-.26,1.75,6.07,6.07,0,0,0,2.89,5.17Zm15.57,10.13-12.68-4.85v-.08a6.11,6.11,0,0,0-.77-3L335.9,277.5H336a5.85,5.85,0,0,0,1.58-.21ZM335.86,234a4.58,4.58,0,0,0,0,.53l-8.46-1.05-2.95-.37-2.93-.36-3.28-.41-7.14-.89c0-.11,0-.23,0-.34a9.67,9.67,0,0,0-5.71-8.83l8.05-29.22h0a5.64,5.64,0,0,0,1.55-.22l6.44,10.48.81,1.32,3,4.93,2.92,4.74,9.41,15.32A6.21,6.21,0,0,0,335.86,234Zm6.24-6.23a3.1,3.1,0,0,0-.43,0,3,3,0,0,0-.43,0l-.26,0-.37.08-.4.11-9.92-16.15-3.22-5.24-3.41-5.55-.19-.31-5.88-9.55a5.61,5.61,0,0,0,1.52-3.83,4.63,4.63,0,0,0,0-.65l24.83-10.05,2.65-1.07,2.85-1.15.18-.07,0,.2-.4,3.42-.63,5.29-.77,6.44-.54,4.55-.89,7.54-3.09,26A6.1,6.1,0,0,0,342.1,227.8Zm6,4.62a6.29,6.29,0,0,0-2-3.19L349.44,201l.84-7.09.49-4.15.81-6.76.24-2,.65-5.41a3.68,3.68,0,0,0,.81-.19l3.28,7.6,3.55,8.21,1.4,3.24,2.5,5.78,3.27,7.56a5.7,5.7,0,0,0-4,5.45,5.62,5.62,0,0,0,1.51,3.85Z" transform="translate(-190.53 -160.13)"/><path class="cls-3" d="M349.43,251.09s7.41,3.63,21,1.66C370.45,252.75,357.62,266.87,349.43,251.09Z" transform="translate(-190.53 -160.13)"/><text class="cls-5" transform="translate(0 212.52) scale(1.08 1)">T<tspan class="cls-6" x="26.2" y="0">E</tspan><tspan class="cls-7" x="48.66" y="0">C</tspan><tspan class="cls-8" x="77" y="0">H </tspan><tspan class="cls-9" x="114.79" y="0">W</tspan><tspan class="cls-10" x="155.37" y="0">EE</tspan><tspan class="cls-8" x="207.53" y="0">K</tspan></text><text class="cls-11" transform="translate(73.78 237.03) scale(1.63 1)"><tspan xml:space="preserve">2   0   2   0</tspan></text></svg>